<svg xmlns="http://www.w3.org/2000/svg" width="1200" height="800" viewBox="0 0 1200 800">
    <defs>
      <linearGradient id="sky" x1="0" y1="0" x2="0" y2="1">
        <stop offset="0%" stop-color="#0a0614"/>
        <stop offset="40%" stop-color="#1a1208"/>
        <stop offset="100%" stop-color="#0d0806"/>
      </linearGradient>
      <radialGradient id="sun" cx="50%" cy="15%" r="30%">
        <stop offset="0%" stop-color="#E8C96A" stop-opacity="0.15"/>
        <stop offset="100%" stop-color="transparent"/>
      </radialGradient>
    </defs>
    <rect width="1200" height="800" fill="url(#sky)"/>
    <rect width="1200" height="800" fill="url(#sun)"/>
    <polygon points="500,200 510,600 490,600" fill="#1a1510" stroke="#E8C96A" stroke-width="0.5" opacity="0.4"/>
    <polygon points="700,250 708,600 692,600" fill="#1a1510" stroke="#E8C96A" stroke-width="0.5" opacity="0.3"/>
    <polygon points="300,300 306,600 294,600" fill="#1a1510" stroke="#E8C96A" stroke-width="0.5" opacity="0.2"/>
    <rect y="600" width="1200" height="200" fill="#0d0806"/>
    <line x1="0" y1="600" x2="1200" y2="600" stroke="#E8C96A" stroke-width="0.5" opacity="0.15"/>
    <circle cx="757.2628285125585" cy="475.6046140267306" r="1.082438071116568" fill="#E8C96A" opacity="0.30198573904209464"/><circle cx="778.2328084785199" cy="307.16882506895735" r="0.3496981501808926" fill="#E8C96A" opacity="0.4892891131538174"/><circle cx="345.00699831983775" cy="129.4381588169955" r="0.6199405502113322" fill="#E8C96A" opacity="0.10097510595816482"/><circle cx="957.5255838690713" cy="16.630874097113168" r="0.7103365857790467" fill="#E8C96A" opacity="0.3245543839780463"/><circle cx="127.03239768340362" cy="111.30176026525324" r="0.7181248057095719" fill="#E8C96A" opacity="0.2016235945124668"/><circle cx="1173.9213445556384" cy="318.52204176611644" r="0.7844548784874612" fill="#E8C96A" opacity="0.27832582064140154"/><circle cx="954.2750241823962" cy="45.73092955849983" r="1.4430548652421933" fill="#E8C96A" opacity="0.21690190409972365"/><circle cx="234.126480045488" cy="98.78029154805733" r="0.883820052974992" fill="#E8C96A" opacity="0.24250140376638787"/><circle cx="1017.5064870186811" cy="275.91795087878853" r="0.45693199164932935" fill="#E8C96A" opacity="0.4852313699211138"/><circle cx="392.6298734876346" cy="300.49247960133647" r="0.4686554859485998" fill="#E8C96A" opacity="0.37836376264881777"/><circle cx="340.9754132783234" cy="433.8786091538818" r="1.3908810808619192" fill="#E8C96A" opacity="0.10864049821365987"/><circle cx="540.0031756245439" cy="13.315346184331334" r="1.432744200077847" fill="#E8C96A" opacity="0.26721714372371574"/><circle cx="333.9261427973399" cy="142.46960840851224" r="1.2409515890471068" fill="#E8C96A" opacity="0.33043525128013435"/><circle cx="72.22541375998048" cy="163.80720208347944" r="1.4040451309090474" fill="#E8C96A" opacity="0.4758283673241339"/><circle cx="197.3587134536797" cy="65.12397429680394" r="1.2371748413440073" fill="#E8C96A" opacity="0.2536755019771819"/><circle cx="775.4439850004552" cy="482.6508276544418" r="0.6577622357917217" fill="#E8C96A" opacity="0.15811257048158153"/><circle cx="328.1474074962955" cy="130.36807696569136" r="0.6957422873044072" fill="#E8C96A" opacity="0.14645305211850818"/><circle cx="880.7576033297582" cy="186.5341649090091" r="1.2049759791861783" fill="#E8C96A" opacity="0.43045764389402164"/><circle cx="569.8552880131729" cy="167.41675123232667" r="1.700677400058677" fill="#E8C96A" opacity="0.49519964574646325"/><circle cx="262.302466526079" cy="63.86476281676523" r="1.097968558552672" fill="#E8C96A" opacity="0.4798996142575168"/><circle cx="650.597182908295" cy="195.44399482450004" r="1.4259779661942447" fill="#E8C96A" opacity="0.4976143051426021"/><circle cx="201.34936533253688" cy="417.73998770720345" r="0.7231518594076991" fill="#E8C96A" opacity="0.24910210421758183"/><circle cx="1039.1217889062896" cy="422.3332020895183" r="0.7166522490838318" fill="#E8C96A" opacity="0.21048564195108954"/><circle cx="290.67023974284507" cy="470.6870038738221" r="1.6823894521259817" fill="#E8C96A" opacity="0.22974568756317942"/><circle cx="1195.510809085353" cy="446.66858219962324" r="0.36277353762737025" fill="#E8C96A" opacity="0.17264493712678525"/><circle cx="952.7817157320561" cy="366.8223244429793" r="0.8180531430321907" fill="#E8C96A" opacity="0.29092691420460737"/><circle cx="1067.0495163481673" cy="192.10666320017717" r="0.5870914384464663" fill="#E8C96A" opacity="0.3408770457940373"/><circle cx="946.5303021840111" cy="334.07091926992456" r="1.6837944670576985" fill="#E8C96A" opacity="0.27349038872141895"/><circle cx="704.5346379839053" cy="49.72087596357694" r="0.8897167182610621" fill="#E8C96A" opacity="0.22949958726610112"/><circle cx="584.5237673994645" cy="301.75499342684935" r="0.7089992588863108" fill="#E8C96A" opacity="0.25157345509175744"/><circle cx="823.0338398429919" cy="22.51915751782896" r="1.6515896667178218" fill="#E8C96A" opacity="0.40481401350750723"/><circle cx="768.125799886052" cy="256.24054017734056" r="1.0350848374853614" fill="#E8C96A" opacity="0.10798826131002018"/><circle cx="653.4907387349988" cy="15.759957419980264" r="1.5687675403047774" fill="#E8C96A" opacity="0.3153526949317611"/><circle cx="721.6333556879399" cy="205.53418833367903" r="1.5971569022579382" fill="#E8C96A" opacity="0.394891883596701"/><circle cx="792.3106362262254" cy="230.76614076432978" r="0.544386070349654" fill="#E8C96A" opacity="0.25336724476948846"/><circle cx="354.1093826859958" cy="187.66667175204137" r="1.336690701346861" fill="#E8C96A" opacity="0.45603967665633593"/><circle cx="561.6889206073442" cy="483.1457965343267" r="0.9831096327603039" fill="#E8C96A" opacity="0.45790497786658224"/><circle cx="786.7663210076307" cy="45.69365590373769" r="0.8636415149872521" fill="#E8C96A" opacity="0.46468871202256856"/><circle cx="996.6115045141524" cy="309.6011661680579" r="0.42863326812424424" fill="#E8C96A" opacity="0.1941985948427008"/><circle cx="1191.880394505199" cy="57.44873718183735" r="1.7132884867392084" fill="#E8C96A" opacity="0.4689353943369313"/><circle cx="480.810711391551" cy="206.43644855454264" r="1.2447165155613593" fill="#E8C96A" opacity="0.12558507189895995"/><circle cx="50.046262772171744" cy="175.87025486254942" r="0.8513504250514281" fill="#E8C96A" opacity="0.393082749751818"/><circle cx="1108.24127750549" cy="92.77865115919448" r="1.1926495954196517" fill="#E8C96A" opacity="0.29205473907258606"/><circle cx="768.9630426792368" cy="228.1471291046312" r="0.37151410514786365" fill="#E8C96A" opacity="0.1519705939522627"/><circle cx="105.32072503419667" cy="261.3407790152857" r="1.0926553634418679" fill="#E8C96A" opacity="0.12336588138538272"/><circle cx="804.8069190290278" cy="39.45700485799259" r="0.7063643181085412" fill="#E8C96A" opacity="0.2911701759677169"/><circle cx="173.28516614948083" cy="465.67932906631296" r="1.402319323503353" fill="#E8C96A" opacity="0.45540750943567876"/><circle cx="24.584534624062737" cy="117.85840106022954" r="1.0645489688082506" fill="#E8C96A" opacity="0.2620857644012809"/><circle cx="1126.1996263996466" cy="76.94010373490823" r="1.1884206270310984" fill="#E8C96A" opacity="0.3785292630501478"/><circle cx="82.14142864075744" cy="294.0307979728156" r="1.5224001900086532" fill="#E8C96A" opacity="0.1309503715212637"/><circle cx="758.45552232691" cy="209.9223047203756" r="0.583178325897528" fill="#E8C96A" opacity="0.242154836995439"/><circle cx="823.8821656014742" cy="471.55171733819117" r="1.1686167224612065" fill="#E8C96A" opacity="0.435523638860674"/><circle cx="1043.190280379651" cy="392.9177376236905" r="0.4951446916898036" fill="#E8C96A" opacity="0.39924003330637414"/><circle cx="1027.100697428264" cy="265.8790901181459" r="0.8686371080959403" fill="#E8C96A" opacity="0.36834007549463677"/><circle cx="645.5200569847512" cy="214.61733055965382" r="1.1931460056174332" fill="#E8C96A" opacity="0.39269238987377575"/><circle cx="667.0325771563274" cy="128.16318601917766" r="1.1456231426788424" fill="#E8C96A" opacity="0.4926553805384536"/><circle cx="108.75441814619897" cy="470.852441485692" r="0.8863923147789361" fill="#E8C96A" opacity="0.25328159166501873"/><circle cx="222.17304637867676" cy="433.5664251124959" r="1.1369880590502022" fill="#E8C96A" opacity="0.12395903401893751"/><circle cx="394.63946841975576" cy="146.12299616185913" r="1.439380907113562" fill="#E8C96A" opacity="0.29421696456277024"/><circle cx="1033.429868320561" cy="427.936821042145" r="0.6345782597001566" fill="#E8C96A" opacity="0.38380099975256365"/>
  </svg>